<svg xmlns="http://www.w3.org/2000/svg" viewBox="0 0 319.91 329.28"><defs><style>.cls-1{fill:#93d500;}.cls-2{fill:#fff;}.cls-3{fill:#ff9e18;}.cls-4{fill:#3cb4e5;}</style></defs><g id="完稿"><polygon class="cls-1" points="33.99 248.91 15.05 87.92 159.96 165.75 159.96 319.06 33.99 248.91"/><path class="cls-2" d="M78.3,199l12.87-23.57L150.11,209l-.18-19.85L96.44,165.76l9.29-17-11.15-6L75.92,166.37,74.64,148.8l-46.3-25,12,109,38.77,21.5,4.54,13.06L151,304.7l-.25-28.62-8.93-13.51-4.39,15.8-42.33-18,49.31-29.49,3-15.49L89.47,189.77l9,20.44,35.46,10.49L81.34,240.79Zm-8.07,38.22L50.13,226.1,42,145.44l21.57,11.7Z"/><polygon class="cls-3" points="159.96 319.06 159.96 165.75 304.86 87.92 285.95 248.66 159.96 319.06"/><path class="cls-2" d="M291.31,126.49l-44.6,50-15.28,8.33,2-12.61L293.55,106l-33.72,18.17L235.72,158l3.65-22.8L218.49,146.4l.7,45.1-14.85,8.1-4-28,16-24-14.4,7.76-31.93,41.51-.19,20.6L189,188.61l-3.17,21.1-12,6.55-.9,71.71,26.93-15-12.1,21.23,23.16-12.91.73-14.87,26.82-14.89-1.1,15,22.83-12.73-10.06-8.77,26.34-14.63,8-74.51-10.89,5.94L290,138.75Zm-23.77,98.16-84.16,46.61,1.09-48.66,88-48.14Z"/><path class="cls-2" d="M207,235.48a15.27,15.27,0,0,0,7.11-11.4c.21-4.29-2.67-6.12-6.44-4.05a15.22,15.22,0,0,0-7.13,11.51C200.39,235.78,203.28,237.53,207,235.48Z"/><path class="cls-2" d="M247.17,213.37c3.68-2,7-7.15,7.32-11.47s-2.35-6.26-6.08-4.21-7,7.25-7.34,11.58S243.49,215.39,247.17,213.37Z"/><path class="cls-2" d="M226.4,236.52c8.26-4.56,7.8-14.06,7.8-14.06l-14.37,7.92S218.13,241.09,226.4,236.52Z"/><polygon class="cls-4" points="15.05 87.99 159.96 10.22 304.86 87.99 159.96 165.75 15.05 87.99"/><polygon class="cls-2" points="242.66 92.11 238.95 64.28 216.54 52.26 231.33 95.94 204.38 105.04 204.38 130.06 283.12 87.99 272.2 82.13 242.66 92.11"/><polygon class="cls-2" points="173.74 117.62 159.96 125.94 146.18 117.62 143.16 30.9 128.1 38.99 128.1 136.99 159.96 154.08 191.81 136.99 191.81 38.99 176.75 30.9 173.74 117.62"/><path class="cls-2" d="M115.53,130.24V45.73L36.8,88Zm-12.56-21L71.6,92.4,103,94Zm0-42.5v13l-27.1,1.53Z"/><polygon class="cls-4" points="290.03 36.68 283.75 30.4 271.75 30.4 271.75 18.4 265.47 12.12 259.18 18.4 259.18 18.41 259.18 30.4 247.19 30.4 240.9 36.68 247.19 42.97 259.18 42.97 259.18 54.96 259.18 54.96 265.46 61.25 271.75 54.96 271.75 42.97 283.75 42.97 283.75 42.97 290.03 36.68"/></g></svg>