<svg xmlns="http://www.w3.org/2000/svg" viewBox="0 0 284.18 72.99"><defs><style>.cls-1{fill:#93d500;}.cls-2{fill:#ff9e18;}.cls-3{fill:#3cb4e5;}</style></defs><g id="圖層_2" data-name="圖層 2"><g id="完稿"><path class="cls-1" d="M182.82,5.3h-5.88L165.71,20.68V12.86h-25.1v51.8h23.11l2.22,5.91h39.94V55l-5-4.52-2.73,9.69-24.86,3L202.6,33.76l1.75-8.26-31.8,2.83L177,36l19.88-4.38L165.71,56.64V35.85L174,21l31.87.75V12.71l-28.62,2.51ZM159.08,58H147.24V19.49h11.84Z"/><path class="cls-2" d="M284.18,14.07,261,26.23h-8.44l.69-5.48L284.17,5.3H266.11l-12.06,9.4,1.18-9.4h-11l1.66,20.93h-8.14l-2.79-14.07L243,5.3h-7.56L218.9,16.2v9.56l10.17-8.62-1.46,9.09h-6.53v36.3h15.67l-6.82,8h13.72v-8h15.77v8h13.72l-6.82-8H282V26.23h-6.08l8.27-6.77ZM276,56.65H227V32.1h49Z"/><path class="cls-2" d="M240.09,44.75a3.82,3.82,0,1,0-3.82-3.82A3.82,3.82,0,0,0,240.09,44.75Z"/><path class="cls-2" d="M263,44.75a3.82,3.82,0,1,0-3.82-3.82A3.82,3.82,0,0,0,263,44.75Z"/><path class="cls-2" d="M251.54,50.85c4.76,0,4.1-5.1,4.1-5.1h-8.2S246.77,50.85,251.54,50.85Z"/><polygon class="cls-3" points="70.41 54.25 63.33 58.52 56.24 54.25 54.69 9.66 46.95 13.81 46.95 64.2 63.33 72.99 79.7 64.2 79.7 13.81 71.96 9.66 70.41 54.25"/><path class="cls-3" d="M40.48,60.73V17.28L0,39ZM34,49.93,17.89,41.28,34,42.12Zm0-21.85v6.69l-13.93.79Z"/><polygon class="cls-3" points="105.85 41.13 103.94 26.82 92.42 20.64 100.02 43.1 86.17 47.78 86.17 60.64 126.65 39.01 121.04 36 105.85 41.13"/><polygon class="cls-3" points="126.97 9.4 120.81 9.4 120.81 3.23 117.57 0 114.34 3.23 114.34 3.23 114.34 9.4 108.18 9.4 104.94 12.63 108.18 15.86 114.34 15.86 114.34 22.03 114.34 22.03 117.57 25.26 120.81 22.03 120.81 15.86 126.97 15.86 126.97 15.86 130.2 12.63 126.97 9.4"/></g></g></svg>