<?xml version="1.0" encoding="utf-8"?>
<!-- Generator: Adobe Illustrator 24.3.0, SVG Export Plug-In . SVG Version: 6.00 Build 0)  -->
<svg version="1.1" id="圖層_1" xmlns="http://www.w3.org/2000/svg" xmlns:xlink="http://www.w3.org/1999/xlink" x="0px" y="0px"
	 viewBox="0 0 109.9 22.5" style="enable-background:new 0 0 109.9 22.5;" xml:space="preserve">
<style type="text/css">
	.st0{fill:#41AAD7;}
	.st1{fill:#8FC429;}
	.st2{fill:#F39A24;}
</style>
<g>
	<path class="st0" d="M7.8,10.6c1.9,0.5,3.7,2,3.7,4.6c0,1.9-0.9,3.1-1.6,3.7c-1.2,1.2-3.2,1.7-6.3,1.7c-1.6,0-2.9-0.1-3.6-0.2V2.3
		c1-0.2,2.7-0.4,4.3-0.4c5.6,0,6.6,2.7,6.6,4.6C10.8,8.3,9.7,9.8,7.8,10.6L7.8,10.6z M4.5,9.7c2.2,0,3.6-1.2,3.6-2.9
		C8.1,4.6,6.3,4,4.6,4c-1,0-1.5,0.1-1.8,0.2v5.5H4.5z M2.8,18.4c0.4,0.1,1,0.1,1.7,0.1c2.2,0,4.2-0.9,4.2-3.4c0-2.4-2.1-3.3-4.2-3.3
		H2.8V18.4z"/>
	<path class="st0" d="M27.1,12.7c0,5.4-2.7,7.8-6.6,7.8c-3.8,0-6.3-2.2-6.3-7.7V1.9H17v11.1c0,3.7,1.5,5.2,3.6,5.2
		c2.3,0,3.7-1.6,3.7-5.2V1.9h2.8V12.7z"/>
	<path class="st0" d="M43.8,2.1l-5.7,10.6v7.8h-2.8v-7.7L29.9,2.1H33l2.2,4.8c0.6,1.3,1.1,2.5,1.6,3.8l0,0c0.5-1.2,1-2.4,1.6-3.8
		L40.6,2C40.6,2.1,43.8,2.1,43.8,2.1z"/>
	<path class="st0" d="M51.6,4h1.9v6.3h6v1.8h-6v6.4h-1.9v-6.4h-6.1v-1.8h6.1V4z"/>
	<path class="st1" d="M65.3,19.9v1.5h-2V2.7c0-0.4,0.2-0.6,0.6-0.6h5.5c0.4,0,0.7,0.2,0.7,0.6v3.8c1.4-1.9,2.4-4,2.8-6.3l2,0.4
		l-0.3,1.3h9.7v2H73.9c-0.6,1.5-1.2,2.7-1.9,3.5l-1.9-0.7v12.5c0,0.5-0.2,0.7-0.7,0.7H65.3z M68.1,4.4c0-0.2-0.1-0.3-0.3-0.3h-2.1
		c-0.2,0-0.3,0.1-0.3,0.3v13.4h2.3c0.3,0,0.4-0.1,0.4-0.4V4.4z M73,6.8h9.4l1.7,1L74.5,17c-0.8,0.7-1.2,1.4-1.2,1.9
		c0,0.1,0,0.5,0.3,0.8c0.5,0.7,1.7,0.7,3.6,0.7c1.5,0,3.4,0,4.1-0.2c1.4-0.4,1.4-2.3,1.4-2.9c0-0.4,0-0.9-0.1-1.4l2,0.1
		c0,0.5,0.1,0.9,0.1,1.3c0,2.1-0.4,4-2.1,4.7c-0.4,0.2-1.6,0.3-3.6,0.3c-2.3,0-4-0.1-4.9-0.2c-0.4-0.1-0.9-0.2-1.3-0.6
		c-1.6-0.7-1.7-2.4-1.7-2.9c0-0.9,0.4-1.7,1.2-2.4l8.1-7.4h-0.2h-7v-2C73.2,6.8,73,6.8,73,6.8z"/>
	<path class="st2" d="M90.7,4.5c-0.8,0.6-1.5,1-2.1,1.4l-1.2-1.6c2-1,3.7-2.5,5.1-4.3L94,1.2l-1.3,1.5v4.4h-1.9L90.7,4.5L90.7,4.5z
		 M88.2,20.4c2.5-0.2,4.9-0.7,7.1-1.4l0.4,2c-2.5,0.6-5,1.2-7.3,1.4L88.2,20.4z M107.3,18.3c0,0.2-0.1,0.3-0.3,0.3H90.5
		c-0.2,0-0.3-0.1-0.3-0.3V8.1c0-0.2,0.1-0.3,0.3-0.3H107c0.2,0,0.3,0.1,0.3,0.3V18.3z M92.1,10.9h13.2V9.6l-0.1-0.1h-13
		c-0.1,0-0.1,0-0.1,0.1V10.9z M92.1,13.9h13.2v-1.3H92.1V13.9z M105.4,15.5H92.1v1.3l0.1,0.1h13.1l0.1-0.1
		C105.4,16.8,105.4,15.5,105.4,15.5z M107.3,2.3c-1.8,0.5-5.2,1-10,1.3c0,0.4,0,1.2,1.1,1.3h8.9c0.2,0,0.4-0.1,0.6-0.2
		c0,0,0.1-0.7,0.2-1.9l1.8,0.4c-0.1,1.7-0.2,2.7-0.4,2.9c-0.5,0.5-0.9,0.7-1.3,0.7h-11c-0.9,0-1.9-0.9-1.9-1.9V0.3h1.9v1.4
		c4.6-0.4,7.8-0.8,9.6-1.3L107.3,2.3z M109,22.5c-2.3-0.6-4.7-1.2-7.2-1.5l0.5-2c2.7,0.4,5.2,0.9,7.4,1.6L109,22.5z"/>
</g>
</svg>
