<?xml version="1.0" encoding="utf-8"?>
<!-- Generator: Adobe Illustrator 24.3.0, SVG Export Plug-In . SVG Version: 6.00 Build 0)  -->
<svg version="1.1" id="圖層_1" xmlns="http://www.w3.org/2000/svg" xmlns:xlink="http://www.w3.org/1999/xlink" x="0px" y="0px"
	 viewBox="0 0 32 32" style="enable-background:new 0 0 32 32;" xml:space="preserve">
<style type="text/css">
	.st0{fill:#264D83;}
	.st1{fill:#FFFFFF;}
</style>
<rect y="0" class="st0" width="32" height="32"/>
<g>
	<g>
		<path class="st1" d="M5.3,30.5V13c-0.7,1.1-1.5,2.3-2.5,3.5c-0.3-0.7-0.7-1.4-1.3-2.2c1.4-1.6,2.7-3.5,3.9-5.8
			c1.2-2.3,2.2-4.6,3-7.1l2.1,0.6c-0.8,2.4-1.8,4.8-3,7.1v21.2H5.3z M10.9,30.5V20.2h6.8c0.1-0.3,0.2-0.7,0.3-1.3
			c0.1-0.3,0.2-0.6,0.2-0.8H9.4v-1.9h21.1v1.9h-9.7c-0.4,0.9-0.7,1.6-0.8,2h9.2v8c0,0.5-0.1,0.9-0.2,1.2c-0.1,0.3-0.4,0.5-0.7,0.7
			c-0.5,0.2-1.5,0.4-3.1,0.4c-0.1-0.6-0.3-1.2-0.7-1.9c1.1,0,1.8,0,2.1,0c0.3,0,0.4-0.1,0.4-0.4v-6.1h-3.5v8h-1.9v-8h-3.4v8h-1.9v-8
			H13v8.4H10.9z M18.7,15.4V8.2h-7v2.5H9.8V6.4h8.8v-2H11V2.5h17.9v1.9h-8.1v2h9.1v4.3h-1.9V8.2h-7.3v7.2H18.7z M11.6,14.4V13h6v1.4
			H11.6z M12.2,11.4V9.9h5.4v1.4H12.2z M21.9,11.4V9.9h5.6v1.4H21.9z M21.9,14.4V13H28v1.4H21.9z"/>
	</g>
</g>
</svg>
